<?xml version="1.0" encoding="utf-8"?>
<!-- Generator: Adobe Illustrator 18.1.1, SVG Export Plug-In . SVG Version: 6.00 Build 0)  -->
<svg version="1.1" id="Capa_1" xmlns="http://www.w3.org/2000/svg" xmlns:xlink="http://www.w3.org/1999/xlink" x="0px" y="0px"
	 viewBox="0 0 131 131" enable-background="new 0 0 131 131" xml:space="preserve">
<g>
	<circle fill="#FFFFFF" stroke="#000000" stroke-width="8" stroke-miterlimit="10" cx="-869.4" cy="-36.8" r="35.7"/>
	<circle fill="#FFFFFF" stroke="#EAD62A" stroke-width="20" stroke-miterlimit="10" cx="-869.4" cy="-36.8" r="34.4"/>
	<circle fill="none" stroke="#8C5516" stroke-width="10" stroke-miterlimit="10" cx="-869.4" cy="-36.8" r="35.3"/>
</g>
<g>
	<ellipse fill="#FFFFFF" stroke="#000000" stroke-width="8" stroke-miterlimit="10" cx="-810.5" cy="-15.2" rx="19" ry="17.9"/>
	<ellipse fill="#FFFFFF" stroke="#EAD62A" stroke-width="12" stroke-miterlimit="10" cx="-810.5" cy="-15.2" rx="18.3" ry="17.2"/>
	<ellipse fill="none" stroke="#8C5516" stroke-width="4" stroke-miterlimit="10" cx="-810.5" cy="-15.2" rx="18.8" ry="17.6"/>
</g>
<g>
	<ellipse fill="#FFFFFF" stroke="#000000" stroke-width="8" stroke-miterlimit="10" cx="-801.5" cy="-56.5" rx="26.2" ry="24.4"/>
	<ellipse fill="#FFFFFF" stroke="#EAD62A" stroke-width="12" stroke-miterlimit="10" cx="-801.5" cy="-56.5" rx="25.2" ry="23.5"/>
	<path fill="none" stroke="#8C5516" stroke-width="4" stroke-miterlimit="10" d="M-775.7-56.5c0,13.3-11.6,24.1-25.9,24.1
		c-14.3,0-25.9-10.8-25.9-24.1c0-13.3,11.6-24.1,25.9-24.1C-787.3-80.6-775.7-69.8-775.7-56.5z"/>
</g>
<g>
	<circle fill="#FFFFFF" stroke="#000000" stroke-width="8" stroke-miterlimit="10" cx="-742" cy="-22" r="47"/>
	<circle fill="#FFFFFF" stroke="#EAD62A" stroke-width="24" stroke-miterlimit="10" cx="-742" cy="-22" r="45.2"/>
	<circle fill="none" stroke="#8C5516" stroke-width="10" stroke-miterlimit="10" cx="-742" cy="-22" r="46.4"/>
</g>
<g>
	<circle fill="#FFFFFF" stroke="#000000" stroke-width="8" stroke-miterlimit="10" cx="-831.3" cy="-118.8" r="47"/>
	<circle fill="#FFFFFF" stroke="#EAD62A" stroke-width="24" stroke-miterlimit="10" cx="-831.3" cy="-118.8" r="45.2"/>
	<circle fill="none" stroke="#8C5516" stroke-width="10" stroke-miterlimit="10" cx="-831.3" cy="-118.8" r="46.4"/>
</g>
<g>
	<circle fill="#FFFFFF" stroke="#000000" stroke-width="8" stroke-miterlimit="10" cx="-705.1" cy="18.5" r="16.7"/>
	<circle fill="#FFFFFF" stroke="#EAD62A" stroke-width="12" stroke-miterlimit="10" cx="-705.1" cy="18.5" r="16"/>
	<circle fill="none" stroke="#8C5516" stroke-width="4" stroke-miterlimit="10" cx="-705.1" cy="18.5" r="16.5"/>
</g>
<g>
	<circle fill="#FFFFFF" stroke="#000000" stroke-width="8" stroke-miterlimit="10" cx="-764.6" cy="-91.6" r="18.5"/>
	<circle fill="#FFFFFF" stroke="#EAD62A" stroke-width="12" stroke-miterlimit="10" cx="-764.6" cy="-91.6" r="17.8"/>
	<circle fill="none" stroke="#8C5516" stroke-width="4" stroke-miterlimit="10" cx="-764.6" cy="-91.6" r="18.2"/>
</g>
<g>
	<circle fill="#FFFFFF" stroke="#000000" stroke-width="8" stroke-miterlimit="10" cx="-895.1" cy="-94.2" r="16.7"/>
	<circle fill="#FFFFFF" stroke="#EAD62A" stroke-width="12" stroke-miterlimit="10" cx="-895.1" cy="-94.2" r="16"/>
	<circle fill="none" stroke="#8C5516" stroke-width="4" stroke-miterlimit="10" cx="-895.1" cy="-94.2" r="16.5"/>
</g>
<g>
	<circle fill="#FFFFFF" stroke="#000000" stroke-width="8" stroke-miterlimit="10" cx="-756.5" cy="-185.9" r="11.9"/>
	<circle fill="#FFFFFF" stroke="#EAD62A" stroke-width="12" stroke-miterlimit="10" cx="-756.5" cy="-185.9" r="11.5"/>
	<circle fill="none" stroke="#8C5516" stroke-width="4" stroke-miterlimit="10" cx="-756.5" cy="-185.9" r="11.8"/>
</g>
<g>
	<circle fill="#FFFFFF" stroke="#000000" stroke-width="8" stroke-miterlimit="10" cx="-789.2" cy="-175.7" r="16.7"/>
	<circle fill="#FFFFFF" stroke="#EAD62A" stroke-width="12" stroke-miterlimit="10" cx="-789.2" cy="-175.7" r="16"/>
	<circle fill="none" stroke="#8C5516" stroke-width="4" stroke-miterlimit="10" cx="-789.2" cy="-175.7" r="16.5"/>
</g>
<g>
	<circle fill="#FFFFFF" stroke="#000000" stroke-width="8" stroke-miterlimit="10" cx="-759.4" cy="-141.2" r="26.8"/>
	<circle fill="#FFFFFF" stroke="#EAD62A" stroke-width="14" stroke-miterlimit="10" cx="-759.4" cy="-141.2" r="25.8"/>
	<circle fill="none" stroke="#8C5516" stroke-width="7" stroke-miterlimit="10" cx="-759.4" cy="-141.2" r="26.4"/>
</g>
<rect x="-911.1" y="47.1" fill="#7A9D2B" width="131" height="131"/>
<rect x="-896.2" y="62" fill="#C3B0A1" width="101.2" height="101.2"/>
<rect x="-880.7" y="77.4" fill="#6581B0" width="70.2" height="70.2"/>
<rect x="-864.6" y="93.5" fill="#E3091D" width="38.1" height="38.1"/>
<rect x="-632.9" y="105" fill="#1A9BD8" width="131" height="131"/>
<g>
	<rect x="-617.4" y="120.5" fill="#2D7278" width="100" height="100"/>
</g>
<rect x="-601.9" y="136" fill="#E3091D" width="69" height="69"/>
<rect x="-585.9" y="152" fill="#7A9D2B" width="36.9" height="36.9"/>
<rect x="-791.4" y="37.6" transform="matrix(0.7656 -0.6433 0.6433 0.7656 -216.9589 -490.539)" fill="#FFFFFF" width="19.6" height="29.8"/>
<rect x="-919.7" y="37" transform="matrix(0.785 0.6195 -0.6195 0.785 -163.5302 574.8543)" fill="#FFFFFF" width="19.6" height="29.8"/>
<rect x="0" y="0" fill="#1A9BD8" width="131" height="131"/>
<g>
	<rect x="15.5" y="15.5" fill="#2D7278" width="100" height="100"/>
</g>
<rect x="31" y="31" fill="#E3091D" width="69" height="69"/>
<rect x="47" y="47" fill="#7A9D2B" width="36.9" height="36.9"/>
</svg>
